<?xml version="1.0" standalone="no"?><!DOCTYPE svg PUBLIC "-//W3C//DTD SVG 1.1//EN" "http://www.w3.org/Graphics/SVG/1.1/DTD/svg11.dtd"><svg t="1630260254566" class="icon" viewBox="0 0 1024 1024" version="1.1" xmlns="http://www.w3.org/2000/svg" p-id="2416" xmlns:xlink="http://www.w3.org/1999/xlink" width="32" height="32"><defs><style type="text/css"></style></defs><path d="M659.296 690.928l35.888 34.608c-40.72 31.168-89.232 51.12-140.992 58.16v111.312h109.6c22.464 0 40.72 14.56 40.72 32.496 0 17.952-18.24 32.496-40.72 32.496H361.2c-22.464 0-40.688-14.56-40.688-32.496 0-17.952 18.24-32.48 40.704-32.48h128.176v-109.28c-67.968-4.896-131.376-31.744-180.48-76.864C254.208 658.592 224 591.808 224 520.912v-48.96c0-13.568 11.536-24.16 25.328-24.16s25.328 10.592 25.328 24.16v48.96c0 57.568 24.592 111.888 69.408 153.072 44.992 41.36 104.64 64.16 167.936 64.16 54.048 0 105.424-16.608 147.296-47.2z m68.736-80.144a199.84 199.84 0 0 0 21.312-89.872V479.52c0-13.584 11.536-24.176 25.328-24.176S800 465.952 800 479.52v41.392c0 44.64-12 87.664-34.56 125.968l-37.408-36.096zM352.592 395.232v104.528c0 79.264 69.056 143.744 153.92 143.744 29.76 0 57.552-7.936 81.12-21.648l39.456 38.032c-33.6 22.672-74.96 36.08-119.632 36.08C395.264 695.968 304 611.456 304 507.584v-159.2l48.608 46.848z m301.76 144.512a134.56 134.56 0 0 0 6.048-40V272.752c0-79.264-69.04-143.744-153.904-143.744-76.784 0-140.64 52.8-152.064 121.6l-44.608-43.024C331.584 125.248 411.936 64 507.456 64c112.192 0 203.472 84.496 203.472 188.384v255.184c0 25.44-5.472 49.728-15.392 71.888l-41.2-39.712z" fill="#000000" p-id="2417"></path><path d="M214.864 146.192l625.856 612.672a25.6 25.6 0 0 1 0.032 36.544 26.64 26.64 0 0 1-37.312 0.016L177.6 182.768a25.6 25.6 0 0 1-0.032-36.56 26.64 26.64 0 0 1 37.312-0.016z" fill="#D21C18" p-id="2418"></path></svg>