<?xml version="1.0" standalone="no"?><!DOCTYPE svg PUBLIC "-//W3C//DTD SVG 1.1//EN" "http://www.w3.org/Graphics/SVG/1.1/DTD/svg11.dtd"><svg t="1626960468548" class="icon" viewBox="0 0 1024 1024" version="1.1" xmlns="http://www.w3.org/2000/svg" p-id="2672" xmlns:xlink="http://www.w3.org/1999/xlink" width="20" height="20"><defs><style type="text/css">@font-face { font-family: feedback-iconfont; src: url("//at.alicdn.com/t/font_1031158_1uhr8ri0pk5.eot?#iefix") format("embedded-opentype"), url("//at.alicdn.com/t/font_1031158_1uhr8ri0pk5.woff2") format("woff2"), url("//at.alicdn.com/t/font_1031158_1uhr8ri0pk5.woff") format("woff"), url("//at.alicdn.com/t/font_1031158_1uhr8ri0pk5.ttf") format("truetype"), url("//at.alicdn.com/t/font_1031158_1uhr8ri0pk5.svg#iconfont") format("svg"); }
</style></defs><path d="M887.905 298.209c-12.864-12.064-33.152-11.488-45.216 1.408L415.935 753.984l-233.12-229.697c-12.606-12.416-32.864-12.287-45.28 0.32-12.416 12.577-12.256 32.865 0.353 45.248l256.48 252.672c0.096 0.096 0.223 0.127 0.32 0.223s0.127 0.224 0.223 0.32c2.016 1.92 4.449 3.01 6.785 4.289 1.152 0.673 2.143 1.663 3.36 2.143 3.775 1.473 7.775 2.24 11.743 2.24 4.192 0 8.384-0.833 12.287-2.496 1.313-0.544 2.336-1.663 3.553-2.369 2.4-1.409 4.895-2.592 6.944-4.672 0.096-0.096 0.127-0.256 0.224-0.352 0.063-0.097 0.192-0.128 0.287-0.224L889.277 343.42c12.162-12.83 11.491-33.085-1.372-45.212z" p-id="2673" fill="#707070"></path></svg>