<?xml version="1.0" standalone="no"?><!DOCTYPE svg PUBLIC "-//W3C//DTD SVG 1.1//EN" "http://www.w3.org/Graphics/SVG/1.1/DTD/svg11.dtd"><svg t="1627987458814" class="icon" viewBox="0 0 1024 1024" version="1.1" xmlns="http://www.w3.org/2000/svg" p-id="1207" width="64" height="64" xmlns:xlink="http://www.w3.org/1999/xlink"><defs><style type="text/css"></style></defs><path d="M78.768011 168.230165c0-30.999918 24.230644-56.076722 54.15419-56.076722L403.692131 112.153443 403.692131 56.076722c0-30.999918 24.230644-56.076722 54.15419-56.076722l108.306335 0c29.923546 0 54.155214 25.076803 54.155214 56.076722l0 56.077745 270.768906 0c29.923546 0 54.15419 25.076803 54.15419 56.076722l0 56.076722L78.768011 224.307909 78.768011 168.230165zM891.076776 336.461352l0 112.153443 0 519.30746c0 30.923181-24.231667 56.077745-54.153167 56.077745L187.076392 1024c-29.923546 0-54.15419-25.154564-54.15419-56.077745L132.922201 448.614796 132.922201 336.461352l0-56.077745 758.154574 0L891.076776 336.461352zM349.53794 448.614796c0-30.923181-24.230644-56.076722-54.15419-56.076722-29.922523 0-54.153167 25.153541-54.153167 56.076722l0 407.154017c0 30.923181 24.230644 56.077745 54.153167 56.077745 29.923546 0 54.15419-25.154564 54.15419-56.077745L349.53794 448.614796zM566.153679 448.614796c0-30.923181-24.230644-56.076722-54.15419-56.076722-29.922523 0-54.153167 25.153541-54.153167 56.076722l0 407.154017c0 30.923181 24.230644 56.077745 54.153167 56.077745 29.923546 0 54.15419-25.154564 54.15419-56.077745L566.153679 448.614796zM782.770441 448.614796c0-30.923181-24.231667-56.076722-54.155214-56.076722s-54.15419 25.153541-54.15419 56.076722l0 407.154017c0 30.923181 24.230644 56.077745 54.15419 56.077745s54.155214-25.154564 54.155214-56.077745L782.770441 448.614796z" p-id="1208"></path></svg>