<svg  width="24px" height="25px"  viewBox="0 0 1024 1024" version="1.1" xmlns="http://www.w3.org/2000/svg">
    <path d="M529.769412 956.837647c-6.023529 0-11.806118-2.409412-16.022588-6.625882l-136.252236-136.553412c-1.807059-1.807059-177.091765-176.911059-202.270117-201.908706C101.074824 538.021647 57.524706 455.258353 49.272471 372.434824c-8.192-82.401882 20.48-160.828235 80.715294-220.762353 59.151059-58.729412 131.192471-83.365647 208.293647-71.198118 64.030118 10.059294 129.867294 45.176471 191.488 101.978353 61.620706-56.801882 127.457882-91.919059 191.427764-101.978353 77.161412-12.167529 149.202824 12.468706 208.293648 71.198118 60.295529 59.934118 88.967529 138.360471 80.775529 220.762353-8.252235 82.823529-51.802353 165.586824-126.012235 239.314823-54.814118 54.512941-335.631059 335.631059-338.522353 338.522353a22.588235 22.588235 0 0 1-15.962353 6.625882zM301.537882 127.819294c-50.416941 0-96.376471 20.239059-136.975058 60.355765-50.959059 50.296471-74.209882 113.242353-67.282824 182.151529 7.107765 71.378824 45.959529 143.721412 112.158118 209.136941 24.997647 24.696471 199.137882 197.571765 200.884706 199.318589l119.446588 118.90447c60.235294-59.934118 273.347765-271.841882 320.331294-318.223059 66.258824-65.415529 104.990118-137.758118 112.158118-209.136941 6.927059-68.909176-16.384-131.915294-67.282824-182.151529-48.790588-48.188235-105.411765-67.704471-168.056471-57.825883-59.693176 9.336471-122.398118 44.995765-181.308235 103.243295a22.528 22.528 0 0 1-31.683765 0c-58.910118-58.247529-121.615059-93.967059-181.308235-103.30353a200.824471 200.824471 0 0 0-31.081412-2.409412z" fill="#8F959E"></path>
</svg>