<svg t="1627111219635" class="icon" viewBox="0 0 1280 1024" version="1.1" xmlns="http://www.w3.org/2000/svg" p-id="7981" width="18" height="18"><path d="M1138.8928 158.72h-180.6336L864 1.3824H392.704L298.496 158.72H117.76C78.5408 158.72 0 198.0416 0 275.456v630.528C0 971.1616 58.88 1024 109.6192 1024h1031.7312c51.5584 0 115.3536-55.296 115.3536-116.736V276.6848c0-39.3728-39.2704-118.016-117.76-118.016z m39.2704 748.544c0 15.4624-25.088 37.1712-36.8128 38.0928H109.8752c-9.1136-0.768-31.3344-18.4832-31.3344-39.3728V275.5072c0-24.9344 33.4336-37.5296 39.2704-38.144h225.1264l22.8864-38.1952 71.3728-119.0912h384.9216l70.144 119.1424 21.5552 38.144h225.0752c27.6992 0 38.912 36.2496 39.2704 39.3728v630.4768zM628.3776 276.6848a275.0976 275.0976 0 0 0-274.944 275.3024 275.0976 275.0976 0 0 0 274.944 275.3024 275.0976 275.0976 0 0 0 274.8928-275.3024 275.0976 275.0976 0 0 0-274.944-275.3024z m0 471.9616a196.7616 196.7616 0 0 1-196.4032-196.6592c0-108.4416 88.1152-196.6592 196.4032-196.6592a196.7616 196.7616 0 0 1 196.352 196.608c0 108.4928-88.064 196.7104-196.352 196.7104z" p-id="7982" fill="#BBBBBB"></path></svg>