<?xml version="1.0" standalone="no"?><!DOCTYPE svg PUBLIC "-//W3C//DTD SVG 1.1//EN" "http://www.w3.org/Graphics/SVG/1.1/DTD/svg11.dtd"><svg t="1627204624610" class="icon" viewBox="0 0 1077 1024" version="1.1" xmlns="http://www.w3.org/2000/svg" p-id="5614" xmlns:xlink="http://www.w3.org/1999/xlink" width="18" height="18"><defs><style type="text/css">@font-face { font-family: feedback-iconfont; src: url("//at.alicdn.com/t/font_1031158_1uhr8ri0pk5.eot?#iefix") format("embedded-opentype"), url("//at.alicdn.com/t/font_1031158_1uhr8ri0pk5.woff2") format("woff2"), url("//at.alicdn.com/t/font_1031158_1uhr8ri0pk5.woff") format("woff"), url("//at.alicdn.com/t/font_1031158_1uhr8ri0pk5.ttf") format("truetype"), url("//at.alicdn.com/t/font_1031158_1uhr8ri0pk5.svg#iconfont") format("svg"); }
</style></defs><path d="M423.774316 25.761684l-8.623158 0.377263-8.623158 1.239579c-47.966316 8.623158-83.375158 47.427368-87.201684 94.854737H182.541474A169.067789 169.067789 0 0 0 13.473684 291.408842v546.816a169.067789 169.067789 0 0 0 169.06779 169.06779h707.637894l10.186106-0.323369a169.391158 169.391158 0 0 0 158.935579-168.744421V291.354947l-0.323369-10.186105-0.91621-9.539368a169.229474 169.229474 0 0 0-167.882106-149.342316h-136.892631c-5.551158-55.673263-50.445474-96.471579-104.340211-96.471579H423.774316z m-2.479158 81.00379l4.527158-0.215579 223.12421 0.053894c12.288 0 22.581895 9.323789 23.767579 21.450106l0.215579 4.527158-0.053895 14.012631c0 26.408421 18.162526 49.044211 43.546948 55.026527l8.299789 1.239578 165.456842 0.269474c46.511158 0 84.938105 36.055579 88.064 82.135579l0.215579 7.437474v545.414737c0 46.511158-36.109474 84.992-82.189473 88.064l-7.437474 0.269473H182.541474a88.225684 88.225684 0 0 1-88.225685-88.279579V291.354947c0-48.720842 39.504842-88.225684 88.225685-88.225684h160.821894c26.408421 0 49.044211-18.216421 55.026527-43.600842l1.239579-8.299789 0.269473-20.695579c0-12.288 9.323789-22.581895 21.396211-23.767579z" fill="#bbbbbb" p-id="5615"></path><path d="M538.947368 311.403789a229.052632 229.052632 0 1 0 0 458.105264 229.052632 229.052632 0 0 0 0-458.105264z m0 80.842106a148.210526 148.210526 0 1 1 0 296.421052 148.210526 148.210526 0 0 1 0-296.421052z" fill="#bbbbbb" p-id="5616"></path></svg>
