<?xml version="1.0" standalone="no"?><!DOCTYPE svg PUBLIC "-//W3C//DTD SVG 1.1//EN" "http://www.w3.org/Graphics/SVG/1.1/DTD/svg11.dtd"><svg t="1627474695488" class="icon" viewBox="0 0 1126 1024" version="1.1" xmlns="http://www.w3.org/2000/svg" p-id="2873" width="15.39453125" height="14" xmlns:xlink="http://www.w3.org/1999/xlink"><defs><style type="text/css">@font-face { font-family: feedback-iconfont; src: url("//at.alicdn.com/t/font_1031158_1uhr8ri0pk5.eot?#iefix") format("embedded-opentype"), url("//at.alicdn.com/t/font_1031158_1uhr8ri0pk5.woff2") format("woff2"), url("//at.alicdn.com/t/font_1031158_1uhr8ri0pk5.woff") format("woff"), url("//at.alicdn.com/t/font_1031158_1uhr8ri0pk5.ttf") format("truetype"), url("//at.alicdn.com/t/font_1031158_1uhr8ri0pk5.svg#iconfont") format("svg"); }
</style></defs><path d="M1070.072509 305.36183v-82.533822c0-74.23948-56.319606-148.478961-128.715898-148.47896H587.362288L579.272745 49.466022A88.165783 88.165783 0 0 0 498.786908 0.007168H120.831154C56.319606 0.007168 0 57.760364 0 123.807901V858.113161C0 924.263098 56.319606 982.016294 120.728755 982.016294H1005.560961C1070.072509 982.016294 1126.392115 924.263098 1126.392115 858.113161V412.57388c0-41.266911-24.166231-82.533822-56.319606-107.21205z m-88.47298-33.074968H691.911957l-56.319606-115.506391h305.76426c24.166231 0 48.230062 32.972569 48.230062 66.047537v49.458854h-7.987144z m-901.113692-148.478961c0-24.780627 16.076687-41.266911 40.242918-41.266911H498.684509s8.089543 0 8.089544 8.191943l120.728754 239.307125a44.031692 44.031692 0 0 0 40.140519 24.780626h321.840948c24.166231 0 56.319606 33.074968 56.319605 57.753196v453.936022c0 24.678227-16.076687 41.164512-40.242918 41.164512H120.831154c-24.166231 0-40.242918-16.383885-40.242918-41.164512V123.807901z" p-id="2874" fill="#fefefe"></path></svg>