<?xml version="1.0" standalone="no"?><!DOCTYPE svg PUBLIC "-//W3C//DTD SVG 1.1//EN" "http://www.w3.org/Graphics/SVG/1.1/DTD/svg11.dtd"><svg t="1626772082012" class="icon" viewBox="0 0 1024 1024" version="1.1" xmlns="http://www.w3.org/2000/svg" p-id="1644" xmlns:xlink="http://www.w3.org/1999/xlink" width="200" height="200"><defs><style type="text/css"></style></defs><path d="M305.680314 589.239102a31.599952 31.599952 0 1 1 0-63.159903h411.479373a31.599952 31.599952 0 1 1 0 63.159903z m0-150.039771a31.599952 31.599952 0 1 1 0-63.159904h308.199531a31.599952 31.599952 0 1 1 0 63.159904z m0-158.199759a31.599952 31.599952 0 1 1 0-63.159904h411.479373a31.599952 31.599952 0 1 1 0 63.159904z" p-id="1645" fill="#d81e06"></path><path d="M192.000487 1023.99844a107.999835 107.999835 0 0 1-107.999835-107.439836V107.439836A107.999835 107.999835 0 0 1 192.000487 0h639.999026a107.999835 107.999835 0 0 1 107.999835 107.439836v646.399016a35.319946 35.319946 0 0 1-7.639988 21.839966l-186.239717 234.879642a35.199946 35.199946 0 0 1-27.999957 13.43998z m0-953.358548a36.999944 36.999944 0 0 0-36.999943 36.799944v809.118768a37.039944 37.039944 0 0 0 36.999943 36.799944h467.639288v-144.199781a107.999835 107.999835 0 0 1 107.999836-107.439836h101.359845V107.439836a37.039944 37.039944 0 0 0-36.999943-36.799944z m575.639124 701.718931a36.999944 36.999944 0 0 0-36.959944 36.799944V915.998605l113.879826-143.639782z" p-id="1646" fill="#d81e06"></path></svg>