<?xml version="1.0" standalone="no"?><!DOCTYPE svg PUBLIC "-//W3C//DTD SVG 1.1//EN" "http://www.w3.org/Graphics/SVG/1.1/DTD/svg11.dtd"><svg t="1630093830030" class="icon" viewBox="0 0 1024 1024" version="1.1" xmlns="http://www.w3.org/2000/svg" p-id="1264" width="32" height="32" xmlns:xlink="http://www.w3.org/1999/xlink"><defs><style type="text/css"></style></defs><path d="M751.870981 441.346476a76.799674 76.799674 0 0 0-47.871797-12.287947h-72.95969v102.399564h72.95969a76.799674 76.799674 0 0 0 48.383794-12.287947 48.895792 48.895792 0 0 0 15.615934-39.423833 44.79981 44.79981 0 0 0-16.127931-38.399837z" fill="#DB7035" p-id="1265"></path><path d="M942.846169 216.067434l-192.255183-204.79913A38.143838 38.143838 0 0 0 722.943103 0.004352h-614.397388a40.191829 40.191829 0 0 0-38.911835 41.471824v941.052A40.191829 40.191829 0 0 0 108.545715 1024h806.90857a40.191829 40.191829 0 0 0 38.911835-41.471824V245.507309a42.751818 42.751818 0 0 0-11.519951-29.439875zM444.416287 683.521447H204.801306v-35.32785l172.031268-219.135068H216.833254v-38.143838H435.200326v35.583848l-171.77527 218.87907h181.759228z m83.711644 0H483.84012V390.914691h44.287811z m179.199239-113.919516h-76.799674v113.919516H586.239684V390.914691h121.343485c69.631704 0 104.447556 29.439875 104.447556 88.831622s-35.071851 89.855618-105.215553 89.855618z" fill="#DB7035" p-id="1266"></path></svg>