<?xml version="1.0" standalone="no"?><!DOCTYPE svg PUBLIC "-//W3C//DTD SVG 1.1//EN" "http://www.w3.org/Graphics/SVG/1.1/DTD/svg11.dtd"><svg t="1627550226149" class="icon" viewBox="0 0 1024 1024" version="1.1" xmlns="http://www.w3.org/2000/svg" p-id="3808" xmlns:xlink="http://www.w3.org/1999/xlink" width="14" height="14"><defs><style type="text/css">@font-face { font-family: feedback-iconfont; src: url("//at.alicdn.com/t/font_1031158_1uhr8ri0pk5.eot?#iefix") format("embedded-opentype"), url("//at.alicdn.com/t/font_1031158_1uhr8ri0pk5.woff2") format("woff2"), url("//at.alicdn.com/t/font_1031158_1uhr8ri0pk5.woff") format("woff"), url("//at.alicdn.com/t/font_1031158_1uhr8ri0pk5.ttf") format("truetype"), url("//at.alicdn.com/t/font_1031158_1uhr8ri0pk5.svg#iconfont") format("svg"); }
</style></defs><path d="M655.91 968.45a32 32 0 0 1-10.25-62.32 411.89 411.89 0 0 0 160.55-99.92C884.79 727.62 928.07 623.14 928.07 512s-43.28-215.62-121.86-294.21C644 55.57 380 55.57 217.79 217.79s-162.22 426.21 0 588.42a32 32 0 0 1-45.25 45.25 480.07 480.07 0 1 1 678.92-678.92 479.7 479.7 0 0 1 0 678.92 475.35 475.35 0 0 1-185.29 115.29 32 32 0 0 1-10.26 1.7z" p-id="3809"></path><path d="M928.23 991.56H703.14a112.13 112.13 0 0 1-112-112v-225.1a32 32 0 0 1 64 0v225.1a48.05 48.05 0 0 0 48 48h225.1a32 32 0 0 1 0 64z" p-id="3810"></path></svg>