<?xml version="1.0" standalone="no"?><!DOCTYPE svg PUBLIC "-//W3C//DTD SVG 1.1//EN" "http://www.w3.org/Graphics/SVG/1.1/DTD/svg11.dtd"><svg t="1627550367348" class="icon" viewBox="0 0 1024 1024" version="1.1" xmlns="http://www.w3.org/2000/svg" p-id="6815" xmlns:xlink="http://www.w3.org/1999/xlink" width="14" height="14"><defs><style type="text/css">@font-face { font-family: feedback-iconfont; src: url("//at.alicdn.com/t/font_1031158_1uhr8ri0pk5.eot?#iefix") format("embedded-opentype"), url("//at.alicdn.com/t/font_1031158_1uhr8ri0pk5.woff2") format("woff2"), url("//at.alicdn.com/t/font_1031158_1uhr8ri0pk5.woff") format("woff"), url("//at.alicdn.com/t/font_1031158_1uhr8ri0pk5.ttf") format("truetype"), url("//at.alicdn.com/t/font_1031158_1uhr8ri0pk5.svg#iconfont") format("svg"); }
</style></defs><path d="M416 0C186.624 0 0 186.624 0 416s186.624 416 416 416c103.2 0 197.536-37.984 270.304-100.448l251.072 251.072a31.904 31.904 0 0 0 45.248 0 31.968 31.968 0 0 0 0-45.248l-251.072-251.072A413.664 413.664 0 0 0 832 416c0-229.376-186.624-416-416-416zM64 416C64 221.92 221.92 64 416 64s352 157.92 352 352-157.92 352-352 352S64 610.08 64 416z" fill="#000000" p-id="6816"></path><path d="M544 384H288a32 32 0 1 0 0 64h256a32 32 0 1 0 0-64z" fill="#000000" p-id="6817"></path></svg>