<?xml version="1.0" standalone="no"?><!DOCTYPE svg PUBLIC "-//W3C//DTD SVG 1.1//EN" "http://www.w3.org/Graphics/SVG/1.1/DTD/svg11.dtd"><svg t="1627550198778" class="icon" viewBox="0 0 1024 1024" version="1.1" xmlns="http://www.w3.org/2000/svg" p-id="2916" xmlns:xlink="http://www.w3.org/1999/xlink" width="14" height="14"><defs><style type="text/css">@font-face { font-family: feedback-iconfont; src: url("//at.alicdn.com/t/font_1031158_1uhr8ri0pk5.eot?#iefix") format("embedded-opentype"), url("//at.alicdn.com/t/font_1031158_1uhr8ri0pk5.woff2") format("woff2"), url("//at.alicdn.com/t/font_1031158_1uhr8ri0pk5.woff") format("woff"), url("//at.alicdn.com/t/font_1031158_1uhr8ri0pk5.ttf") format("truetype"), url("//at.alicdn.com/t/font_1031158_1uhr8ri0pk5.svg#iconfont") format("svg"); }
</style></defs><path d="M548.5 100.6c-212.8 0-388.4 162.4-409.3 369.8H69.7c-5.1 0-7.6 6.1-4 9.7l95.6 95.6c2.2 2.2 5.8 2.2 8 0l95.6-95.6c3.6-3.6 1-9.7-4-9.7h-64.7C216.9 294.1 367 156.9 548.7 156.9c195.8 0 355.2 159.3 355.2 355.1S744.6 867.2 548.7 867.2c-15.6 0-28.1 12.6-28.1 28.1s12.6 28.1 28.1 28.1C775.4 923.4 960 738.8 960 512c0-226.9-184.6-411.4-411.5-411.4z" fill="#000000" p-id="2917"></path></svg>