<?xml version="1.0" standalone="no"?><!DOCTYPE svg PUBLIC "-//W3C//DTD SVG 1.1//EN" "http://www.w3.org/Graphics/SVG/1.1/DTD/svg11.dtd"><svg t="1627550344142" class="icon" viewBox="0 0 1024 1024" version="1.1" xmlns="http://www.w3.org/2000/svg" p-id="5304" xmlns:xlink="http://www.w3.org/1999/xlink" width="14" height="14"><defs><style type="text/css">@font-face { font-family: feedback-iconfont; src: url("//at.alicdn.com/t/font_1031158_1uhr8ri0pk5.eot?#iefix") format("embedded-opentype"), url("//at.alicdn.com/t/font_1031158_1uhr8ri0pk5.woff2") format("woff2"), url("//at.alicdn.com/t/font_1031158_1uhr8ri0pk5.woff") format("woff"), url("//at.alicdn.com/t/font_1031158_1uhr8ri0pk5.ttf") format("truetype"), url("//at.alicdn.com/t/font_1031158_1uhr8ri0pk5.svg#iconfont") format("svg"); }
</style></defs><path d="M787.2 742.4C857.6 665.6 896 563.2 896 448c0-249.6-198.4-448-448-448S0 198.4 0 448s198.4 448 448 448c115.2 0 217.6-38.4 294.4-108.8l236.8 236.8 44.8-44.8-236.8-236.8zM448 825.6c-211.2 0-377.6-172.8-377.6-377.6S236.8 70.4 448 70.4s377.6 172.8 377.6 377.6-166.4 377.6-377.6 377.6z" fill="#000000" p-id="5305"></path><path d="M480 288h-64v128h-128v64h128v128h64v-128h128v-64h-128z" fill="#000000" p-id="5306"></path></svg>